<?xml version="1.0" encoding="utf-8"?>
<!-- Generator: Adobe Illustrator 25.4.1, SVG Export Plug-In . SVG Version: 6.00 Build 0)  -->
<svg version="1.1" id="Layer_1" xmlns="http://www.w3.org/2000/svg" xmlns:xlink="http://www.w3.org/1999/xlink" x="0px" y="0px"
	 viewBox="0 0 150 50" style="enable-background:new 0 0 150 50;" xml:space="preserve">
<style type="text/css">
	.st0{fill:#FFFFFF;}
</style>
<g>
	<path class="st0" d="M24,11.9c1.2,0.2,1.8,0.7,1.8,1.4c-0.2,0.9-0.4,1.4-0.8,1.4h-1c-0.3,0-0.4-0.1-0.4-0.4
		c0.3-0.4,0.6-0.9,0.4-1.2c-0.2-0.3-1.2,0.3-1.3,0.4c-0.5,0.3-0.9,0.8-1.3,1.2c-0.6,0.9-1.5,2-1.8,3c-0.1,0.3-0.3,1,0,1.3
		c0.3,0.3,1.3-0.2,1.6-0.3c0.6-0.2,1.1-0.6,1.6-0.9c1.7-1.1,3.2-1.9,4.7-3.2c0.2-0.1,1.3-1.4,1.6-1.4l0.4,0.3c0.3,0-0.7,1.1-0.7,1.3
		v0.4c-3.7,3.6-7.5,5.4-10,5.4c-1.3,0-2.3-0.4-2-1.8C17.7,14.3,21.3,11.9,24,11.9z"/>
	<path class="st0" d="M31.2,12.5c0.9,0.1,1.3,1,1.3,1.8c0,0.4,0,0.8-0.1,1.2c-0.1,0.2-0.2,1.7-0.4,1.7c1.1-0.4,2.6-1.6,4-2.9
		c0.3-0.1,0.6-0.2,0.9-0.1c0.2,0.1,0.6,0.4,0.4,0.6L37.1,15c-1.8,2.1-3.8,3.2-6,3.2c0.2,0-0.8,1.6-0.9,1.7c-0.6,0.5-1.5,0.9-2.3,0.6
		c-1-0.4-1.2-1.8-1.2-2.8c0-1.1,0.4-2.3,1-3.2c0.7-1,1.7-1.9,3-2C30.9,12.5,31.1,12.5,31.2,12.5z M28.8,16.5c-0.1,0.9-0.4,2-0.2,2.9
		c0.1,0.4,0.8-0.2,0.9-0.4c0.1-0.1,0.5-0.9,0.5-0.9C29.8,18.1,29.5,17.5,28.8,16.5z M30.5,14.2c-0.1,0-0.3,0-0.4,0.1
		c0,0-0.1,0.1-0.1,0.1c0,0,0,0.1,0,0.1c0,0.3,0,0.5,0,0.8c0,0.3,0.1,0.7,0.3,1c0.1,0.2,0.3,0.5,0.5,0.4c0.1,0,0-1,0-1.1
		c0-0.4,0.2-1.1-0.1-1.4C30.6,14.2,30.5,14.2,30.5,14.2z"/>
	<path class="st0" d="M45.1,10.3c0.9-0.1,1.8,0.4,1.8,1.4c0,0.5-0.2,1.1-0.3,1.6c-0.3,1.1-0.5,2.2-0.6,3.3c-0.1,1,1.4,0.2,1.7,0.1
		c0.3-0.2,0.7-0.4,1-0.6c0.6-0.4,1.3-1.2,1.6-1.9c0.7-1.2,1.3-2.5,1.5-2.5c0,0,0.8,0.6,0.8,0.6c0.2,0.1-1,2.4-0.8,2.4V15
		c-2.2,2.5-4.3,3.8-6.4,3.8c-2.2,0-1-3.1-0.7-4.2c0.1-0.4,0.2-0.9,0.3-1.3c0.1-0.4,0.2-0.7,0.4-1.1c0-0.1-0.1-0.2-0.2-0.1
		c-0.2,0.1-0.4,0.5-0.5,0.6c-0.4,0.6-0.4,0.8-0.7,1.3c-0.3,0.6-0.6,1.2-0.9,1.7c-0.4,0.9-0.8,1.8-1.2,2.7c-0.3,0.7-0.6,1.4-1.1,1.9
		c-0.5,0.5-1.3,0.5-2,0.5c-0.5,0,0.8-4.2,0.9-4.6c0.3-1,0.6-2,0.9-3c-0.6,1.1-1.3,2.2-2.1,3.2c-0.6,0.7-1.1,1.6-1.9,2.1
		c-0.3,0.2-0.7,0.2-1.1,0.2c-0.5-0.1-0.6-0.2-0.6-0.8c0-1.4,0.5-2.5,1.6-3.4c0.7,0,1,0.2,1,0.6c1.6-2.5,2.8-3.8,3.4-3.8h0.2
		c0.8,0,1.2,0.5,1.2,1.4v1c0,0-0.2,1.1,0.2,0c0,0,0.6-1.4,0.7-1.5c0.3-0.5,0.7-1.1,1.2-1.4C44.4,10.4,44.8,10.3,45.1,10.3z"/>
	<path class="st0" d="M51.9,11c0,0,0.8,0,0.8,0c0.3,0,0.2,2,0,2.2c1.4-1.1,2.6-1.6,3.6-1.6h0.4c1.1,0,1.6,0.5,1.6,1.6v0.6
		c0,0.6-0.5,1.4-1.4,2.6h0.2c0.4,0,1.4-0.7,3.2-2h0.4c0.3,0.1,0.5,0.2,0.6,0.2c0,0,0,1,0,1c-0.3,0.4-1.1,0.8-1.5,1
		c-0.5,0.3-1.1,0.6-1.7,0.8c-0.9,0.3-1.7,0.6-2.6,0.8c-1.1,0.3-2.2,0.8-3.4,0.8c-0.3,0-0.4-0.1-0.4-0.4c0,0,0-0.4,0-0.4
		c0-0.3,0.6-0.6,0.8-0.7c0.7-0.4,1.4-0.6,2.1-1.2c0.4-0.4,0.8-0.8,1.2-1.3c0.3-0.4,0.7-0.9,0.7-1.4v-0.4c0-0.3-0.1-0.4-0.4-0.4
		c-1.7,0.5-3.3,2.3-5,5.6c-2.3,4.4-4.8,10-7.6,16.6h-0.4l-1-0.2v-0.4c0.8-2.2,3.8-9.6,9-22.3C51.4,11.2,51.6,11,51.9,11z"/>
	<path class="st0" d="M63.3,12.5c0.8,0.1,1.1,0.8,1.3,1.5c0.1,0.6,0,1.1-0.2,1.6c-0.1,0.3-0.5,1.2-0.2,1.5c0.1,0.1,0.3,0,0.4,0
		c0.2-0.1,0.4-0.2,0.6-0.4c0.4-0.2,0.8-0.5,1.2-0.8c0.6-0.5,1.1-1,1.8-1.4c0.2-0.1,3.5-2.1,3.7-2c0.3,0.1-1.5,1.8-2,1.8L69.3,15
		c-1.8,2.1-4,3.3-6,3.2c0,0.1-0.2,0.5-0.2,0.5c-0.6,0.9-1.8,2.1-2.9,1.8c-0.2,0-0.3-0.2-0.4-0.3c-0.3-0.3-0.4-0.7-0.5-1
		c-0.1-0.5-0.1-1-0.1-1.5c0-2.1,1.5-4.8,3.8-5.2C63.1,12.5,63.2,12.5,63.3,12.5z M62.9,13.3c-0.1,0-0.3,0-0.4,0.1
		c0,0-0.1,0.1-0.1,0.1c0,0,0,0.1,0,0.1c0,0.3,0,0.5,0,0.8c0,0.3,0.1,0.7,0.3,1c0.1,0.2,0.3,0.5,0.5,0.4c0.1,0,0-1,0-1.1
		c0-0.4,0.2-1.1-0.1-1.4C63,13.3,63,13.3,62.9,13.3z M61,16.4c0-0.1-0.1,0-0.1,0c0,0.2-0.1,0.3-0.1,0.6c-0.1,0.6-0.1,1-0.1,1.3
		c0,0.3-0.1,0.5,0,0.8c0,0,0,0.1,0,0.2c0.2,0.3,0.8-0.3,0.9-0.4c0.1-0.2,0.2-0.3,0.3-0.5c0,0,0.2-0.4,0.2-0.4
		C62.1,17.9,61.7,17.4,61,16.4z"/>
	<path class="st0" d="M71.6,11.8c0.3,0,1.4-0.1,1.7-0.1c0.2,0,1.2,0.1,1.2,0.5c0,0,0,0.4,0,0.4c0,0.1-0.8,0.5-1,0.6
		c-0.3,0.2-0.6,0.4-0.8,0.6c-1.1,0.8-3.4,2.3-4.2,3.4c-0.1,0.2-0.3,0.4-0.3,0.6c-0.1,0.3,0.1,0.8,0.5,0.9c0.1,0,0.3,0,0.4-0.1
		c2.1-0.6,4.7-2.6,6.6-3.8c0.2-0.2,0.5-0.4,0.7-0.6c0.5-0.5,1.3-1.3,1.7-1.9c1.1-1.6,0.8,0,0.8,0c0.3,0-0.9,2-0.9,2.2v0.2
		c-3.9,3-8.7,6.1-10.9,6.1c-1.9,0-1.8-1.8-1.1-3.3c0.6-1.2,2.1-3,5.1-4.6h-0.6h-2.8c-0.2,0-0.3-0.1-0.4-0.2
		c-0.3-0.3-0.1-0.5,0.5-0.8c0.2-0.1,0.8,0,1.1,0c0.4,0,0.8,0,1.1,0C70.5,11.9,71.1,11.8,71.6,11.8z"/>
	<path class="st0" d="M78.3,11.1c0.2-0.1,0.6,0,0.8,0c1.1,0,0.3,1.8,0.2,2.3c-0.2,0.6-0.4,1.1-0.6,1.7c-0.1,0.3-0.3,0.7-0.4,1
		c-0.1,0.3-0.4,0.6-0.5,1c-0.1,0.3-0.3,0.8,0.1,0.9c1.1-0.2,2.1-0.8,3-1.4c0.8-0.6,1.9-1.1,2.6-1.9c0.1-0.1,1.3-1.6,1.2-1.7
		c0.2,0.2,0,0.8-0.1,1.1c0,0.2-0.1,0.3-0.1,0.5c0,0.1,0.1,0.2,0.1,0.2c0,0,0,0.6,0,0.6c-2,1.9-5.3,5.4-8.2,5.4
		c-0.8,0-1.2-0.4-1.2-1.2c0-0.9,1.3-4.1,2.8-7.4c0.1-0.2-0.2-0.3-0.2-0.5C77.7,11.3,78.1,11.2,78.3,11.1
		C78.3,11.1,78.3,11.1,78.3,11.1z M83.1,2c0.1,0,0.3,0,0.4,0c1.1-0.1,1,1,0,1.4c-0.4,0.2-0.7,0.2-1.3,0.3l-0.9,0
		c-0.3,0-0.5-0.2-0.5-0.4C80.8,2.3,82.3,2.1,83.1,2z"/>
	<path class="st0" d="M89.4,2.3c0.2,0,0.4,0,0.6,0c0.3,0,0.4,0.2,0.4,0.4c0,0.6-0.6,2.2-1.8,5c2.9,0,5.8,0,8.6,0
		c6.1,0,12.2,0,18.3,0c5.5,0,10.9,0,16.4,0c1.7,0,3.6-0.2,5.2,0.2c0,0.2,0.1,0.4,0,0.6c-0.3,0.8-3,0.6-3.6,0.6c0,0-0.8,0-0.8,0
		l-0.6-0.4H88c0,0.2-5.1,12.3-15.4,36.1c0.3,0,0.4,0.2,0.4,0.6c-0.8,1.8-1.6,2.8-2.4,2.8c-0.7-0.1-1-0.3-1-0.6L86.2,8.6H73.4
		c-0.3,0-0.4-0.1-0.4-0.4c0.1-0.4,0.6-0.6,1.2-0.6c0,0,12.1,0,12.1,0c0.2,0,0.4-0.5,0.4-0.6c0.3-0.6,0.6-1.2,0.9-1.7
		c0.2-0.4,0.4-0.9,0.6-1.3c0.1-0.3,0.2-0.5,0.3-0.8C88.7,3,88.8,2.7,89,2.5c0,0,0,0,0.1-0.1C89.1,2.3,89.3,2.3,89.4,2.3z"/>
	<path class="st0" d="M89,11C89,11,89,11,89,11c0,0,0.1,0,0.1,0c0.2,0,0.4,0,0.6,0c0.2,0,0.4,0.2,0.6,0.6v0.2c0,0.4-0.2,0.9-0.3,1.2
		c-0.3,0.9-0.7,1.8-1,2.7c-0.2,0.4-0.4,0.8-0.5,1.3c-0.1,0.3-0.2,0.8-0.1,1c0.1,0.2,0.4,0,0.6-0.1c0.8-0.5,1.6-1,2.4-1.5
		c0.8-0.5,1.5-1.1,2.2-1.7c0.3-0.3,1.3-1.9,1.7-1.9c0,0,0,0.9,0,0.9c0.3,0.1-0.3,0.8,0,0.8v0.6c-2.4,2.2-5.2,4.7-7.5,5.4H87
		c-1.6,0-0.7-2-0.7-2.8c0,0-3.2,1.1-3.1,0.6c0.3-0.9,0.3-0.6,0.6-1.5c0.1-0.3,2.8-1,3.5-2.2c0.6-1.1,0.9-2.1,1-2.3
		c0.1-0.1,0.2-0.4,0.2-0.5c0-0.1,0-0.1-0.1-0.2c0-0.1-0.2-0.3-0.1-0.4c0,0,0,0,0,0c0.1-0.1,0.3-0.2,0.5-0.3C88.9,11.1,88.9,11,89,11
		z M93.8,2c0.3,0,0.8,0,1,0c0.4,0.1,0.4,0.7,0.2,0.9c-0.3,0.3-0.6,0.4-1,0.5c-0.5,0.1-1.6,0.3-1.6,0.3c-0.3,0-0.8-0.1-0.8-0.4
		C91.6,2.5,92.8,2.1,93.8,2z"/>
	<path class="st0" d="M102.2,9.1c0.2,0,0.5,0.2,0.8,0.2c0.8,0.2-1.4,3.5-1.6,3.8v0.2c0.5,0.8,1.3,1.2,2.4,1.2V15
		c0,0.3-0.1,0.4-0.4,0.4h-1c-0.6,0-1.2-0.3-2-1c-2.8,4.4-4.7,6.2-6,6.2c0,0-0.2,0-0.2,0c-2.9,0-0.3-6.6,1.1-7.8l1,0.2v0.2
		c-1.3,3.7-1.9,5.5-1.9,6.2c1.2-0.9,2.8-2.7,5.2-6c-0.3-1.1-0.4-1.8,0.2-2.8C100.3,9.8,101.1,9.1,102.2,9.1
		C102.2,9.1,102.2,9.1,102.2,9.1z M101.2,10.9c-0.1,0.1-0.1,0.2-0.1,0.2c0,0.1-0.1,0.2,0,0.2c0.1-0.1,0.2-0.1,0.3-0.2
		c0.1-0.1,0.1-0.2,0.2-0.3c0,0,0.1-0.2,0-0.1c-0.1,0-0.1,0-0.2,0.1C101.3,10.8,101.2,10.9,101.2,10.9z"/>
	<path class="st0" d="M106.2,11.5c0.3,0,0.6,0,0.9,0c0.4,0.1,0.7,0.2,0.9,0.5c0.2,0.3,0.2,0.6,0.2,0.9c-0.1,1.1-0.6,2.1-1.3,2.8
		c-0.6,0.6-1.3,0.7-2.2,0.6c-0.7-0.1-0.8-0.3-1-0.3c-0.2,0-1.4,2.3-0.7,2.8c0.6,0.5,1.8-0.3,2.4-0.6c1.2-0.7,2.4-1.6,3.4-2.5
		c0.1-0.1,0.2-0.2,0.3-0.2c0.3-0.1,1-0.1,1,0.4c0,0,0,0.4,0,0.4c-1.4,1.4-3.4,3.1-5.2,3.8c-1.1,0.4-4.9,1.5-4.9-0.6
		c0-2.2,2.6-5.4,2.6-5.5C103.6,12.7,104.7,11.6,106.2,11.5z M104.8,13.5c-0.2,0.1-0.4,0.4-0.5,0.6c-0.1,0.2-0.4,0.7-0.2,0.8
		c0.4,0.1,0.7-0.1,0.9-0.4c0.2-0.2,0.4-0.5,0.6-0.7c0,0,0.3-0.4,0.1-0.5c-0.2,0-0.3-0.1-0.4,0C105.2,13.3,105,13.4,104.8,13.5z"/>
</g>
<g>
	<g>
		<path class="st0" d="M109.4,22.5C109.3,22.5,109.3,22.5,109.4,22.5c-0.3-0.2-0.5-0.3-0.7-0.4c0,0.2,0,0.3,0,0.3c0,0,0,0.1,0,0.1
			c0,0-0.1,0-0.1,0c0,0-0.1,0-0.1,0c0,0,0-0.1,0-0.1c0,0,0-0.1,0-0.2c0-0.1,0-0.2,0-0.2l0-0.8c0,0,0-0.1,0-0.1c0,0,0.1-0.1,0.1-0.1
			c0.2,0,0.2,0,0.2,0c0.1,0,0.2,0,0.2,0.1c0.3,0.1,0.4,0.3,0.4,0.5c0,0.1,0,0.2-0.1,0.2c-0.1,0.1-0.1,0.1-0.3,0.2
			c0.2,0.1,0.3,0.2,0.4,0.3c0,0,0,0.1,0,0.1C109.5,22.4,109.5,22.5,109.4,22.5C109.4,22.5,109.4,22.5,109.4,22.5z M108.8,21.3
			c0,0,0,0-0.1,0v0.5c0,0,0,0,0,0c0.2,0,0.3,0,0.3-0.1c0,0,0.1,0,0.1-0.1c0,0,0,0,0-0.1c0-0.1,0-0.1-0.1-0.2
			C108.9,21.4,108.9,21.3,108.8,21.3z"/>
	</g>
	<path class="st0" d="M108.9,23c-0.7,0-1.2-0.5-1.2-1.2c0-0.7,0.5-1.2,1.2-1.2c0.7,0,1.2,0.5,1.2,1.2C110.1,22.5,109.5,23,108.9,23z
		 M108.9,20.9c-0.5,0-1,0.4-1,1s0.4,1,1,1c0.5,0,1-0.4,1-1S109.4,20.9,108.9,20.9z"/>
</g>
</svg>
